PathFileType	4	(X/Y/Z)	C:\Users\Graham\Documents\MATLAB\MOtoNMS_v2_2\MyData\ElaboratedData\S9\22-05-17\staticElaborations\Static1\Static1\\Static1.trc
DataRate	CameraRate	NumFrames	NumMarkers	Units	OrigDataRate	DataStartFrame
100	100	4	38	mm	100	2
Frame#	Time	V_Sacral			R_ASIS			L_ASIS			R_Knee_Lat			R_Knee_Med			R_Thigh_Upper			R_Thigh_Front			R_Thigh_Rear			L_Knee_Lat			L_Knee_Med			L_Thigh_Upper			L_Thigh_Front			L_Thigh_Rear			R_Ankle_Lat			R_Ankle_Med			R_Shank_Upper			R_Shank_Front			R_Shank_Rear			L_Ankle_Lat			L_Ankle_Med			L_Shank_Upper			L_Shank_Front			L_Shank_Rear			R_Heel			R_MTP1			R_MTP5			L_Heel			L_MTP1			L_MTP5			Clavicle			R_Acromium			L_Acromium			LAJC			RAJC			LHJC			RHJC			LKJC			RKJC		
		X1	Y1	Z1	X2	Y2	Z2	X3	Y3	Z3	X4	Y4	Z4	X5	Y5	Z5	X6	Y6	Z6	X7	Y7	Z7	X8	Y8	Z8	X9	Y9	Z9	X10	Y10	Z10	X11	Y11	Z11	X12	Y12	Z12	X13	Y13	Z13	X14	Y14	Z14	X15	Y15	Z15	X16	Y16	Z16	X17	Y17	Z17	X18	Y18	Z18	X19	Y19	Z19	X20	Y20	Z20	X21	Y21	Z21	X22	Y22	Z22	X23	Y23	Z23	X24	Y24	Z24	X25	Y25	Z25	X26	Y26	Z26	X27	Y27	Z27	X28	Y28	Z28	X29	Y29	Z29	X30	Y30	Z30	X31	Y31	Z31	X32	Y32	Z32	X33	Y33	Z33	X34	Y34	Z34	X35	Y35	Z35	X36	Y36	Z36	X37	Y37	Z37	X38	Y38	Z38	

165	1.640000	-166.225802	1026.982894	4.586719	18.049180	1002.834555	149.252632	44.033864	1008.633475	-94.307201	-94.099502	497.075067	166.502356	-102.693749	476.187805	52.998958	34.651887	721.357485	130.474712	2.310445	611.807275	88.721793	1.223368	607.095000	166.475753	-73.264883	497.927980	-150.776809	-85.628454	474.451445	-37.420977	53.937309	719.660942	-90.985174	23.801538	609.070412	-59.891655	25.729054	609.249755	-127.522480	-144.664756	96.068759	146.297850	-126.319195	100.874085	56.174802	-59.761535	340.274017	136.169309	-94.691352	229.563584	78.032783	-98.181795	223.662717	159.706033	-137.073482	89.218463	-152.380223	-126.313654	97.689527	-58.429312	-48.444030	337.444022	-123.071222	-73.751271	222.008337	-75.543509	-86.141096	222.862086	-156.031434	-204.157885	43.345124	113.088743	35.220842	59.403558	78.377062	21.956607	51.105732	161.008620	-201.960379	44.564069	-110.857020	39.969977	55.544779	-69.345883	36.801547	49.395007	-148.993030	31.522099	1408.189858	27.980086	-79.115439	1481.185753	221.597274	-68.355346	1510.460863	-178.846159	-131.693568	93.453995	-105.404768	-135.491975	98.471422	101.236326	-25.505502	930.055070	-69.040588	-44.203801	925.882230	106.222447	-79.446669	486.189713	-94.098893	-98.396626	486.631436	109.750657	
166	1.650000	-166.263294	1026.999307	4.622011	18.628336	1003.173270	149.162423	43.995502	1008.653106	-94.338114	-94.085944	497.074039	166.503162	-102.687724	476.188432	53.000977	34.660656	721.356125	130.459271	2.315753	611.806959	88.711423	1.231329	607.092064	166.460363	-73.288760	497.932405	-150.778406	-85.641590	474.455221	-37.420784	53.897922	719.677519	-91.012376	23.773594	609.079571	-59.908734	25.691035	609.262973	-127.545684	-144.661252	96.068739	146.297052	-126.318160	100.874913	56.174634	-59.752282	340.273620	136.166338	-94.686683	229.564839	78.032508	-98.174222	223.662393	159.705472	-137.074580	89.218887	-152.378247	-126.310834	97.689853	-58.429159	-48.459070	337.453195	-123.075703	-73.761534	222.013123	-75.540974	-86.151370	222.870298	-156.034845	-204.158456	43.347810	113.090416	35.221375	59.402808	78.376845	21.957664	51.105452	161.008277	-201.959588	44.565132	-110.856436	39.971139	55.543821	-69.346750	36.801788	49.392323	-148.994354	31.520075	1408.247385	27.966038	-79.131464	1481.202628	221.611439	-68.477118	1510.464532	-178.830899	-131.692707	93.454370	-105.403703	-135.489706	98.471826	101.235843	-25.473890	930.097549	-68.819110	-43.728639	926.154143	106.409021	-79.465175	486.193813	-94.099595	-98.386834	486.631236	109.752070	
167	1.660000	-166.299683	1027.015160	4.654290	19.178266	1003.500238	149.078206	43.960341	1008.674703	-94.364273	-94.074537	497.073589	166.504127	-102.682266	476.189438	53.002655	34.666873	721.356285	130.446846	2.320575	611.808134	88.702698	1.233139	607.088759	166.444116	-73.309184	497.936903	-150.778928	-85.652687	474.459052	-37.420262	53.861444	719.694552	-91.035145	23.747883	609.089302	-59.923024	25.657625	609.276239	-127.564751	-144.658356	96.068649	146.295845	-126.316597	100.875614	56.174314	-59.744038	340.273502	136.164391	-94.682729	229.565949	78.031202	-98.168107	223.662285	159.704886	-137.075754	89.220143	-152.376505	-126.307591	97.690598	-58.428864	-48.471941	337.461384	-123.079272	-73.770706	222.017831	-75.538448	-86.160062	222.877744	-156.036315	-204.159034	43.350967	113.091386	35.221722	59.402735	78.376641	21.958182	51.105401	161.008245	-201.959758	44.566782	-110.855353	39.972669	55.543267	-69.347045	36.801731	49.389948	-148.995693	31.518269	1408.306183	27.954336	-79.149816	1481.220507	221.626720	-68.597694	1510.473922	-178.810597	-131.691672	93.455370	-105.402685	-135.487477	98.472131	101.235080	-25.441392	930.140333	-68.605119	-43.275847	926.416522	106.588604	-79.480936	486.197978	-94.099595	-98.378402	486.631513	109.753391	
168	1.670000	-166.335039	1027.029918	4.683128	19.648786	1003.786932	149.006013	43.928060	1008.697701	-94.384910	-94.065897	497.073590	166.505324	-102.678652	476.190655	53.004091	34.669898	721.358077	130.436677	2.323949	611.810782	88.694968	1.230981	607.086100	166.428552	-73.326809	497.941364	-150.778266	-85.662232	474.462881	-37.419307	53.827787	719.711413	-91.053321	23.724329	609.099513	-59.934548	25.628214	609.289222	-127.579650	-144.656206	96.068425	146.294378	-126.314583	100.876177	56.173901	-59.737124	340.273650	136.163527	-94.679773	229.566894	78.029183	-98.163720	223.662241	159.704347	-137.076973	89.222154	-152.375112	-126.304138	97.691702	-58.428400	-48.483044	337.468522	-123.081993	-73.778580	222.022274	-75.536232	-86.167497	222.884263	-156.036256	-204.159467	43.354314	113.091689	35.221754	59.403285	78.376455	21.958121	51.105573	161.008462	-201.960822	44.568916	-110.853882	39.974477	55.543261	-69.346814	36.801390	49.388047	-148.996886	31.516069	1408.364473	27.946457	-79.170549	1481.238911	221.643967	-68.714272	1510.489344	-178.784043	-131.690556	93.456928	-105.401756	-135.485394	98.472301	101.234140	-25.414208	930.180891	-68.418961	-42.887456	926.646721	106.744017	-79.494520	486.202122	-94.098787	-98.372274	486.632122	109.754707	
